M48
; DRILL file {KiCad (6.0.5)} date Sun Jan 29 18:00:31 2023
; FORMAT={-:-/ absolute / inch / decimal}
; #@! TF.CreationDate,2023-01-29T18:00:31+00:00
; #@! TF.GenerationSoftware,Kicad,Pcbnew,(6.0.5)
; #@! TF.FileFunction,Plated,1,2,PTH
FMAT,2
INCH
; #@! TA.AperFunction,Plated,PTH,ViaDrill
T1C0.0157
; #@! TA.AperFunction,Plated,PTH,ComponentDrill
T2C0.0256
; #@! TA.AperFunction,Plated,PTH,ComponentDrill
T3C0.0315
; #@! TA.AperFunction,Plated,PTH,ComponentDrill
T4C0.0394
%
G90
G05
T1
X4.8819Y-1.2992
X4.8819Y-1.378
X4.8819Y-1.4567
X4.8819Y-1.5354
X4.8819Y-1.6142
X4.8819Y-1.6929
X4.9606Y-1.2992
X4.9606Y-1.6929
X5.0394Y-1.2992
X5.0394Y-1.6929
X5.0787Y-1.8898
X5.1181Y-1.1024
X5.1181Y-1.2992
X5.1575Y-1.8898
X5.1969Y-1.1024
X5.1969Y-1.2992
X5.2362Y-1.4961
X5.2362Y-1.8898
X5.2756Y-1.1024
X5.315Y-1.4961
X5.315Y-1.8898
X5.3543Y-1.1024
X5.3937Y-1.4961
X5.3937Y-1.8898
X5.4331Y-1.1024
X5.4724Y-1.4173
X5.4724Y-1.8898
X5.5118Y-1.1024
X5.5512Y-1.8898
X5.5906Y-1.1024
X5.5906Y-1.4961
X5.6299Y-1.8898
X5.6693Y-1.1024
X5.6693Y-1.4961
X5.7087Y-1.8898
X5.748Y-1.1024
X5.748Y-1.4961
X5.7874Y-1.8898
X5.8071Y-1.3779
X5.8071Y-1.624
X5.8268Y-1.1024
X5.8268Y-1.4961
X5.8661Y-1.8898
X5.9055Y-1.1024
X5.9055Y-1.3484
X5.9055Y-1.4961
X5.9055Y-1.6535
X5.9449Y-1.8898
X5.9843Y-1.1024
X5.9843Y-1.4567
X6.0236Y-1.8898
X6.063Y-1.1024
X6.1024Y-1.3189
X6.1024Y-1.4961
X6.1024Y-1.6831
X6.1024Y-1.8898
X6.1417Y-1.1024
X6.1811Y-1.4961
X6.1811Y-1.8898
X6.2205Y-1.1024
X6.2598Y-1.4961
X6.2598Y-1.8898
X6.2992Y-1.1024
X6.3189Y-1.378
X6.3189Y-1.624
X6.3386Y-1.4961
X6.3386Y-1.8898
X6.378Y-1.1024
X6.4173Y-1.3484
X6.4173Y-1.4961
X6.4173Y-1.6535
X6.4173Y-1.8898
X6.4567Y-1.1024
X6.4961Y-1.4961
X6.4961Y-1.8898
X6.5354Y-1.1024
X6.5748Y-1.8898
X6.6142Y-1.1024
X6.6142Y-1.3189
X6.6142Y-1.6831
X6.6339Y-1.5453
X6.6535Y-1.8898
X6.6929Y-1.1024
X6.6929Y-1.5551
X6.7126Y-1.5945
X6.7323Y-1.8898
X6.7717Y-1.1024
X6.811Y-1.8898
X6.8504Y-1.1024
X6.8898Y-1.3386
X6.8898Y-1.3976
X6.8898Y-1.6634
X6.8898Y-1.8898
X6.9291Y-1.1024
X6.9685Y-1.8898
X6.9882Y-1.6929
X7.0079Y-1.1024
X7.0472Y-1.5354
X7.0472Y-1.6929
X7.0472Y-1.8898
X7.0866Y-1.1024
X7.126Y-1.378
X7.126Y-1.5354
X7.126Y-1.6929
X7.126Y-1.8898
X7.1654Y-1.1024
X7.2047Y-1.8898
X7.2441Y-1.1024
X7.2638Y-1.6929
X7.2835Y-1.8898
X7.3228Y-1.1024
X7.3228Y-1.437
X7.3228Y-1.6929
X7.3622Y-1.4764
X7.3622Y-1.8898
X7.3676Y-1.53
X7.4016Y-1.1024
X7.4409Y-1.8898
X7.4803Y-1.1024
X7.4803Y-1.7618
X7.5197Y-1.5354
X7.5197Y-1.8898
X7.5591Y-1.1024
X7.5787Y-1.5748
X7.5787Y-1.6142
X7.5886Y-1.4862
X7.5984Y-1.8898
X7.6052Y-1.3454
X7.6083Y-1.3976
X7.6378Y-1.1024
X7.6378Y-1.2402
X7.6476Y-1.4173
X7.6772Y-1.5354
X7.6772Y-1.8898
X7.6969Y-1.2402
X7.7165Y-1.1024
X7.7559Y-1.8898
X7.7953Y-1.1024
X7.7953Y-1.6339
X7.7953Y-1.7618
X7.815Y-1.3583
X7.8248Y-1.6043
X7.8346Y-1.8898
X7.8642Y-1.4862
X7.8642Y-1.5354
X7.874Y-1.1024
X7.9134Y-1.8898
X7.9331Y-1.3583
X7.9528Y-1.1024
X7.9921Y-1.8898
X8.0118Y-1.3583
X8.0315Y-1.1024
X8.0512Y-1.4567
X8.0512Y-1.5157
X8.0709Y-1.8898
X8.0906Y-1.3583
X8.1102Y-1.1024
X8.1496Y-1.8898
X8.189Y-1.1024
X8.189Y-1.6142
X8.189Y-1.6929
X8.1988Y-1.2402
X8.1988Y-1.2795
X8.2283Y-1.8898
X8.2677Y-1.1024
X8.2677Y-1.1811
X8.2677Y-1.2598
X8.2957Y-1.6945
X8.3071Y-1.8898
X8.3465Y-1.1024
X8.3465Y-1.1811
X8.3465Y-1.2598
X8.3858Y-1.8898
X8.4252Y-1.1024
X8.4252Y-1.1811
X8.4252Y-1.2598
X8.4646Y-1.8898
X8.5039Y-1.1024
X8.5039Y-1.1811
X8.5039Y-1.2598
X8.5433Y-1.8898
X8.5827Y-1.1024
X8.5827Y-1.2992
X8.5827Y-1.378
X8.5827Y-1.4567
X8.6614Y-1.2992
X8.6614Y-1.378
X8.6614Y-1.4567
X8.6614Y-1.6929
X8.7402Y-1.2992
X8.7402Y-1.378
X8.7402Y-1.4567
X8.7402Y-1.5354
X8.7402Y-1.6142
X8.7402Y-1.6929
T2
X5.1181Y-1.8209
X5.1681Y-1.8209
X7.5886Y-1.8209
X7.6386Y-1.8209
T3
X5.2724Y-1.1961
X5.2724Y-1.7961
X5.3724Y-1.1961
X5.3724Y-1.7961
X5.4724Y-1.1961
X5.4724Y-1.7961
X5.5724Y-1.1961
X5.5724Y-1.7961
X5.6724Y-1.1961
X5.6724Y-1.7961
X5.7843Y-1.1961
X5.7843Y-1.7961
X5.8843Y-1.1961
X5.8843Y-1.7961
X5.9843Y-1.1961
X5.9843Y-1.7961
X6.0843Y-1.1961
X6.0843Y-1.7961
X6.1843Y-1.1961
X6.1843Y-1.7961
X6.2961Y-1.1961
X6.2961Y-1.7961
X6.3961Y-1.1961
X6.3961Y-1.7961
X6.4961Y-1.1961
X6.4961Y-1.7961
X6.5961Y-1.1961
X6.5961Y-1.7961
X6.6961Y-1.1961
X6.6961Y-1.7961
T4
X7.9429Y-1.4941
X7.9429Y-1.5941
X7.9429Y-1.6941
X7.9429Y-1.7941
X8.0709Y-1.6923
X8.0709Y-1.7923
X8.2957Y-1.7618
X8.3957Y-1.7618
T3
G00X8.1575Y-1.4528
M15
G01X8.1575Y-1.5394
M16
G05
G00X8.3898Y-1.3858
M15
G01X8.3031Y-1.3858
M16
G05
G00X8.3976Y-1.6142
M15
G01X8.2953Y-1.6142
M16
G05
T0
M30
