%TF.GenerationSoftware,KiCad,Pcbnew,(6.0.5)*%
%TF.CreationDate,2023-01-29T17:57:26+00:00*%
%TF.ProjectId,PCB reflow Plate,50434220-7265-4666-9c6f-7720506c6174,rev?*%
%TF.SameCoordinates,Original*%
%TF.FileFunction,Soldermask,Bot*%
%TF.FilePolarity,Negative*%
%FSLAX46Y46*%
G04 Gerber Fmt 4.6, Leading zero omitted, Abs format (unit mm)*
G04 Created by KiCad (PCBNEW (6.0.5)) date 2023-01-29 17:57:26*
%MOMM*%
%LPD*%
G01*
G04 APERTURE LIST*
%ADD10R,1.000000X1.000000*%
%ADD11O,1.000000X1.000000*%
%ADD12R,4.400000X1.800000*%
%ADD13O,4.000000X1.800000*%
%ADD14O,1.800000X4.000000*%
%ADD15R,1.524000X2.524000*%
%ADD16O,1.524000X2.524000*%
%ADD17R,1.700000X1.700000*%
%ADD18O,1.700000X1.700000*%
G04 APERTURE END LIST*
D10*
%TO.C,TH2*%
X130000000Y-46250000D03*
D11*
X131270000Y-46250000D03*
%TD*%
D10*
%TO.C,TH1*%
X192750000Y-46250000D03*
D11*
X194020000Y-46250000D03*
%TD*%
D12*
%TO.C,J4*%
X212000000Y-41000000D03*
D13*
X212000000Y-35200000D03*
D14*
X207200000Y-38000000D03*
%TD*%
D15*
%TO.C,U4*%
X146920000Y-45620000D03*
D16*
X149460000Y-45620000D03*
X152000000Y-45620000D03*
X154540000Y-45620000D03*
X157080000Y-45620000D03*
X157080000Y-30380000D03*
X154540000Y-30380000D03*
X152000000Y-30380000D03*
X149460000Y-30380000D03*
X146920000Y-30380000D03*
%TD*%
D17*
%TO.C,J5*%
X213250000Y-44750000D03*
D18*
X210710000Y-44750000D03*
%TD*%
D17*
%TO.C,J2*%
X201750000Y-37950000D03*
D18*
X201750000Y-40490000D03*
X201750000Y-43030000D03*
X201750000Y-45570000D03*
%TD*%
D17*
%TO.C,J1*%
X205000000Y-45525000D03*
D18*
X205000000Y-42985000D03*
%TD*%
D15*
%TO.C,U5*%
X133920000Y-45620000D03*
D16*
X136460000Y-45620000D03*
X139000000Y-45620000D03*
X141540000Y-45620000D03*
X144080000Y-45620000D03*
X144080000Y-30380000D03*
X141540000Y-30380000D03*
X139000000Y-30380000D03*
X136460000Y-30380000D03*
X133920000Y-30380000D03*
%TD*%
D15*
%TO.C,U3*%
X159920000Y-45620000D03*
D16*
X162460000Y-45620000D03*
X165000000Y-45620000D03*
X167540000Y-45620000D03*
X170080000Y-45620000D03*
X170080000Y-30380000D03*
X167540000Y-30380000D03*
X165000000Y-30380000D03*
X162460000Y-30380000D03*
X159920000Y-30380000D03*
%TD*%
M02*
