%TF.GenerationSoftware,KiCad,Pcbnew,(6.0.5)*%
%TF.CreationDate,2023-01-29T17:57:26+00:00*%
%TF.ProjectId,PCB reflow Plate,50434220-7265-4666-9c6f-7720506c6174,rev?*%
%TF.SameCoordinates,Original*%
%TF.FileFunction,Legend,Top*%
%TF.FilePolarity,Positive*%
%FSLAX46Y46*%
G04 Gerber Fmt 4.6, Leading zero omitted, Abs format (unit mm)*
G04 Created by KiCad (PCBNEW (6.0.5)) date 2023-01-29 17:57:26*
%MOMM*%
%LPD*%
G01*
G04 APERTURE LIST*
%ADD10C,0.150000*%
%ADD11C,0.120000*%
G04 APERTURE END LIST*
D10*
%TO.C,TH2*%
X127757380Y-47535714D02*
X127757380Y-46964285D01*
X128757380Y-47250000D02*
X127757380Y-47250000D01*
X128757380Y-46630952D02*
X127757380Y-46630952D01*
X128233571Y-46630952D02*
X128233571Y-46059523D01*
X128757380Y-46059523D02*
X127757380Y-46059523D01*
X127852619Y-45630952D02*
X127805000Y-45583333D01*
X127757380Y-45488095D01*
X127757380Y-45250000D01*
X127805000Y-45154761D01*
X127852619Y-45107142D01*
X127947857Y-45059523D01*
X128043095Y-45059523D01*
X128185952Y-45107142D01*
X128757380Y-45678571D01*
X128757380Y-45059523D01*
%TO.C,TH1*%
X191964285Y-47702380D02*
X192535714Y-47702380D01*
X192250000Y-48702380D02*
X192250000Y-47702380D01*
X192869047Y-48702380D02*
X192869047Y-47702380D01*
X192869047Y-48178571D02*
X193440476Y-48178571D01*
X193440476Y-48702380D02*
X193440476Y-47702380D01*
X194440476Y-48702380D02*
X193869047Y-48702380D01*
X194154761Y-48702380D02*
X194154761Y-47702380D01*
X194059523Y-47845238D01*
X193964285Y-47940476D01*
X193869047Y-47988095D01*
%TO.C,C1*%
X206607142Y-29166666D02*
X206654761Y-29214285D01*
X206702380Y-29357142D01*
X206702380Y-29452380D01*
X206654761Y-29595238D01*
X206559523Y-29690476D01*
X206464285Y-29738095D01*
X206273809Y-29785714D01*
X206130952Y-29785714D01*
X205940476Y-29738095D01*
X205845238Y-29690476D01*
X205750000Y-29595238D01*
X205702380Y-29452380D01*
X205702380Y-29357142D01*
X205750000Y-29214285D01*
X205797619Y-29166666D01*
X206702380Y-28214285D02*
X206702380Y-28785714D01*
X206702380Y-28500000D02*
X205702380Y-28500000D01*
X205845238Y-28595238D01*
X205940476Y-28690476D01*
X205988095Y-28785714D01*
%TO.C,SW3*%
X187666666Y-30154761D02*
X187809523Y-30202380D01*
X188047619Y-30202380D01*
X188142857Y-30154761D01*
X188190476Y-30107142D01*
X188238095Y-30011904D01*
X188238095Y-29916666D01*
X188190476Y-29821428D01*
X188142857Y-29773809D01*
X188047619Y-29726190D01*
X187857142Y-29678571D01*
X187761904Y-29630952D01*
X187714285Y-29583333D01*
X187666666Y-29488095D01*
X187666666Y-29392857D01*
X187714285Y-29297619D01*
X187761904Y-29250000D01*
X187857142Y-29202380D01*
X188095238Y-29202380D01*
X188238095Y-29250000D01*
X188571428Y-29202380D02*
X188809523Y-30202380D01*
X189000000Y-29488095D01*
X189190476Y-30202380D01*
X189428571Y-29202380D01*
X189714285Y-29202380D02*
X190333333Y-29202380D01*
X190000000Y-29583333D01*
X190142857Y-29583333D01*
X190238095Y-29630952D01*
X190285714Y-29678571D01*
X190333333Y-29773809D01*
X190333333Y-30011904D01*
X190285714Y-30107142D01*
X190238095Y-30154761D01*
X190142857Y-30202380D01*
X189857142Y-30202380D01*
X189761904Y-30154761D01*
X189714285Y-30107142D01*
%TO.C,J4*%
X215416666Y-44202380D02*
X215416666Y-44916666D01*
X215369047Y-45059523D01*
X215273809Y-45154761D01*
X215130952Y-45202380D01*
X215035714Y-45202380D01*
X216321428Y-44535714D02*
X216321428Y-45202380D01*
X216083333Y-44154761D02*
X215845238Y-44869047D01*
X216464285Y-44869047D01*
%TO.C,R9*%
X198452380Y-46171390D02*
X197976190Y-46504724D01*
X198452380Y-46742819D02*
X197452380Y-46742819D01*
X197452380Y-46361866D01*
X197500000Y-46266628D01*
X197547619Y-46219009D01*
X197642857Y-46171390D01*
X197785714Y-46171390D01*
X197880952Y-46219009D01*
X197928571Y-46266628D01*
X197976190Y-46361866D01*
X197976190Y-46742819D01*
X198452380Y-45695200D02*
X198452380Y-45504724D01*
X198404761Y-45409485D01*
X198357142Y-45361866D01*
X198214285Y-45266628D01*
X198023809Y-45219009D01*
X197642857Y-45219009D01*
X197547619Y-45266628D01*
X197500000Y-45314247D01*
X197452380Y-45409485D01*
X197452380Y-45599962D01*
X197500000Y-45695200D01*
X197547619Y-45742819D01*
X197642857Y-45790438D01*
X197880952Y-45790438D01*
X197976190Y-45742819D01*
X198023809Y-45695200D01*
X198071428Y-45599962D01*
X198071428Y-45409485D01*
X198023809Y-45314247D01*
X197976190Y-45266628D01*
X197880952Y-45219009D01*
%TO.C,Q3*%
X219154761Y-38297619D02*
X219059523Y-38250000D01*
X218964285Y-38154761D01*
X218821428Y-38011904D01*
X218726190Y-37964285D01*
X218630952Y-37964285D01*
X218678571Y-38202380D02*
X218583333Y-38154761D01*
X218488095Y-38059523D01*
X218440476Y-37869047D01*
X218440476Y-37535714D01*
X218488095Y-37345238D01*
X218583333Y-37250000D01*
X218678571Y-37202380D01*
X218869047Y-37202380D01*
X218964285Y-37250000D01*
X219059523Y-37345238D01*
X219107142Y-37535714D01*
X219107142Y-37869047D01*
X219059523Y-38059523D01*
X218964285Y-38154761D01*
X218869047Y-38202380D01*
X218678571Y-38202380D01*
X219440476Y-37202380D02*
X220059523Y-37202380D01*
X219726190Y-37583333D01*
X219869047Y-37583333D01*
X219964285Y-37630952D01*
X220011904Y-37678571D01*
X220059523Y-37773809D01*
X220059523Y-38011904D01*
X220011904Y-38107142D01*
X219964285Y-38154761D01*
X219869047Y-38202380D01*
X219583333Y-38202380D01*
X219488095Y-38154761D01*
X219440476Y-38107142D01*
%TO.C,U4*%
X146452380Y-38761904D02*
X147261904Y-38761904D01*
X147357142Y-38714285D01*
X147404761Y-38666666D01*
X147452380Y-38571428D01*
X147452380Y-38380952D01*
X147404761Y-38285714D01*
X147357142Y-38238095D01*
X147261904Y-38190476D01*
X146452380Y-38190476D01*
X146785714Y-37285714D02*
X147452380Y-37285714D01*
X146404761Y-37523809D02*
X147119047Y-37761904D01*
X147119047Y-37142857D01*
%TO.C,U1*%
X202988095Y-28702380D02*
X202988095Y-29511904D01*
X203035714Y-29607142D01*
X203083333Y-29654761D01*
X203178571Y-29702380D01*
X203369047Y-29702380D01*
X203464285Y-29654761D01*
X203511904Y-29607142D01*
X203559523Y-29511904D01*
X203559523Y-28702380D01*
X204559523Y-29702380D02*
X203988095Y-29702380D01*
X204273809Y-29702380D02*
X204273809Y-28702380D01*
X204178571Y-28845238D01*
X204083333Y-28940476D01*
X203988095Y-28988095D01*
%TO.C,R6*%
X198702380Y-29416666D02*
X198226190Y-29750000D01*
X198702380Y-29988095D02*
X197702380Y-29988095D01*
X197702380Y-29607142D01*
X197750000Y-29511904D01*
X197797619Y-29464285D01*
X197892857Y-29416666D01*
X198035714Y-29416666D01*
X198130952Y-29464285D01*
X198178571Y-29511904D01*
X198226190Y-29607142D01*
X198226190Y-29988095D01*
X197702380Y-28559523D02*
X197702380Y-28750000D01*
X197750000Y-28845238D01*
X197797619Y-28892857D01*
X197940476Y-28988095D01*
X198130952Y-29035714D01*
X198511904Y-29035714D01*
X198607142Y-28988095D01*
X198654761Y-28940476D01*
X198702380Y-28845238D01*
X198702380Y-28654761D01*
X198654761Y-28559523D01*
X198607142Y-28511904D01*
X198511904Y-28464285D01*
X198273809Y-28464285D01*
X198178571Y-28511904D01*
X198130952Y-28559523D01*
X198083333Y-28654761D01*
X198083333Y-28845238D01*
X198130952Y-28940476D01*
X198178571Y-28988095D01*
X198273809Y-29035714D01*
%TO.C,R5*%
X208202380Y-43416666D02*
X207726190Y-43750000D01*
X208202380Y-43988095D02*
X207202380Y-43988095D01*
X207202380Y-43607142D01*
X207250000Y-43511904D01*
X207297619Y-43464285D01*
X207392857Y-43416666D01*
X207535714Y-43416666D01*
X207630952Y-43464285D01*
X207678571Y-43511904D01*
X207726190Y-43607142D01*
X207726190Y-43988095D01*
X207202380Y-42511904D02*
X207202380Y-42988095D01*
X207678571Y-43035714D01*
X207630952Y-42988095D01*
X207583333Y-42892857D01*
X207583333Y-42654761D01*
X207630952Y-42559523D01*
X207678571Y-42511904D01*
X207773809Y-42464285D01*
X208011904Y-42464285D01*
X208107142Y-42511904D01*
X208154761Y-42559523D01*
X208202380Y-42654761D01*
X208202380Y-42892857D01*
X208154761Y-42988095D01*
X208107142Y-43035714D01*
%TO.C,R3*%
X127833333Y-44352380D02*
X127500000Y-43876190D01*
X127261904Y-44352380D02*
X127261904Y-43352380D01*
X127642857Y-43352380D01*
X127738095Y-43400000D01*
X127785714Y-43447619D01*
X127833333Y-43542857D01*
X127833333Y-43685714D01*
X127785714Y-43780952D01*
X127738095Y-43828571D01*
X127642857Y-43876190D01*
X127261904Y-43876190D01*
X128166666Y-43352380D02*
X128785714Y-43352380D01*
X128452380Y-43733333D01*
X128595238Y-43733333D01*
X128690476Y-43780952D01*
X128738095Y-43828571D01*
X128785714Y-43923809D01*
X128785714Y-44161904D01*
X128738095Y-44257142D01*
X128690476Y-44304761D01*
X128595238Y-44352380D01*
X128309523Y-44352380D01*
X128214285Y-44304761D01*
X128166666Y-44257142D01*
%TO.C,J5*%
X214972380Y-49468333D02*
X215686666Y-49468333D01*
X215829523Y-49515952D01*
X215924761Y-49611190D01*
X215972380Y-49754047D01*
X215972380Y-49849285D01*
X214972380Y-48515952D02*
X214972380Y-48992142D01*
X215448571Y-49039761D01*
X215400952Y-48992142D01*
X215353333Y-48896904D01*
X215353333Y-48658809D01*
X215400952Y-48563571D01*
X215448571Y-48515952D01*
X215543809Y-48468333D01*
X215781904Y-48468333D01*
X215877142Y-48515952D01*
X215924761Y-48563571D01*
X215972380Y-48658809D01*
X215972380Y-48896904D01*
X215924761Y-48992142D01*
X215877142Y-49039761D01*
%TO.C,J2*%
X201416666Y-35452380D02*
X201416666Y-36166666D01*
X201369047Y-36309523D01*
X201273809Y-36404761D01*
X201130952Y-36452380D01*
X201035714Y-36452380D01*
X201845238Y-35547619D02*
X201892857Y-35500000D01*
X201988095Y-35452380D01*
X202226190Y-35452380D01*
X202321428Y-35500000D01*
X202369047Y-35547619D01*
X202416666Y-35642857D01*
X202416666Y-35738095D01*
X202369047Y-35880952D01*
X201797619Y-36452380D01*
X202416666Y-36452380D01*
%TO.C,J1*%
X204666666Y-40202380D02*
X204666666Y-40916666D01*
X204619047Y-41059523D01*
X204523809Y-41154761D01*
X204380952Y-41202380D01*
X204285714Y-41202380D01*
X205666666Y-41202380D02*
X205095238Y-41202380D01*
X205380952Y-41202380D02*
X205380952Y-40202380D01*
X205285714Y-40345238D01*
X205190476Y-40440476D01*
X205095238Y-40488095D01*
%TO.C,C2*%
X201607142Y-29416666D02*
X201654761Y-29464285D01*
X201702380Y-29607142D01*
X201702380Y-29702380D01*
X201654761Y-29845238D01*
X201559523Y-29940476D01*
X201464285Y-29988095D01*
X201273809Y-30035714D01*
X201130952Y-30035714D01*
X200940476Y-29988095D01*
X200845238Y-29940476D01*
X200750000Y-29845238D01*
X200702380Y-29702380D01*
X200702380Y-29607142D01*
X200750000Y-29464285D01*
X200797619Y-29416666D01*
X200797619Y-29035714D02*
X200750000Y-28988095D01*
X200702380Y-28892857D01*
X200702380Y-28654761D01*
X200750000Y-28559523D01*
X200797619Y-28511904D01*
X200892857Y-28464285D01*
X200988095Y-28464285D01*
X201130952Y-28511904D01*
X201702380Y-29083333D01*
X201702380Y-28464285D01*
%TO.C,U2*%
X187809040Y-33651522D02*
X188381460Y-34223942D01*
X188482475Y-34257614D01*
X188549819Y-34257614D01*
X188650834Y-34223942D01*
X188785521Y-34089255D01*
X188819193Y-33988240D01*
X188819193Y-33920896D01*
X188785521Y-33819881D01*
X188213101Y-33247461D01*
X188583491Y-33011759D02*
X188583491Y-32944416D01*
X188617162Y-32843400D01*
X188785521Y-32675042D01*
X188886536Y-32641370D01*
X188953880Y-32641370D01*
X189054895Y-32675042D01*
X189122239Y-32742385D01*
X189189582Y-32877072D01*
X189189582Y-33685194D01*
X189627315Y-33247461D01*
%TO.C,RN1*%
X173452380Y-31690476D02*
X172976190Y-32023809D01*
X173452380Y-32261904D02*
X172452380Y-32261904D01*
X172452380Y-31880952D01*
X172500000Y-31785714D01*
X172547619Y-31738095D01*
X172642857Y-31690476D01*
X172785714Y-31690476D01*
X172880952Y-31738095D01*
X172928571Y-31785714D01*
X172976190Y-31880952D01*
X172976190Y-32261904D01*
X173452380Y-31261904D02*
X172452380Y-31261904D01*
X173452380Y-30690476D01*
X172452380Y-30690476D01*
X173452380Y-29690476D02*
X173452380Y-30261904D01*
X173452380Y-29976190D02*
X172452380Y-29976190D01*
X172595238Y-30071428D01*
X172690476Y-30166666D01*
X172738095Y-30261904D01*
%TO.C,C5*%
X186107142Y-42416666D02*
X186154761Y-42464285D01*
X186202380Y-42607142D01*
X186202380Y-42702380D01*
X186154761Y-42845238D01*
X186059523Y-42940476D01*
X185964285Y-42988095D01*
X185773809Y-43035714D01*
X185630952Y-43035714D01*
X185440476Y-42988095D01*
X185345238Y-42940476D01*
X185250000Y-42845238D01*
X185202380Y-42702380D01*
X185202380Y-42607142D01*
X185250000Y-42464285D01*
X185297619Y-42416666D01*
X185202380Y-41511904D02*
X185202380Y-41988095D01*
X185678571Y-42035714D01*
X185630952Y-41988095D01*
X185583333Y-41892857D01*
X185583333Y-41654761D01*
X185630952Y-41559523D01*
X185678571Y-41511904D01*
X185773809Y-41464285D01*
X186011904Y-41464285D01*
X186107142Y-41511904D01*
X186154761Y-41559523D01*
X186202380Y-41654761D01*
X186202380Y-41892857D01*
X186154761Y-41988095D01*
X186107142Y-42035714D01*
%TO.C,R7*%
X184702380Y-42416666D02*
X184226190Y-42750000D01*
X184702380Y-42988095D02*
X183702380Y-42988095D01*
X183702380Y-42607142D01*
X183750000Y-42511904D01*
X183797619Y-42464285D01*
X183892857Y-42416666D01*
X184035714Y-42416666D01*
X184130952Y-42464285D01*
X184178571Y-42511904D01*
X184226190Y-42607142D01*
X184226190Y-42988095D01*
X183702380Y-42083333D02*
X183702380Y-41416666D01*
X184702380Y-41845238D01*
%TO.C,Q2*%
X175904761Y-24547619D02*
X175809523Y-24500000D01*
X175714285Y-24404761D01*
X175571428Y-24261904D01*
X175476190Y-24214285D01*
X175380952Y-24214285D01*
X175428571Y-24452380D02*
X175333333Y-24404761D01*
X175238095Y-24309523D01*
X175190476Y-24119047D01*
X175190476Y-23785714D01*
X175238095Y-23595238D01*
X175333333Y-23500000D01*
X175428571Y-23452380D01*
X175619047Y-23452380D01*
X175714285Y-23500000D01*
X175809523Y-23595238D01*
X175857142Y-23785714D01*
X175857142Y-24119047D01*
X175809523Y-24309523D01*
X175714285Y-24404761D01*
X175619047Y-24452380D01*
X175428571Y-24452380D01*
X176238095Y-23547619D02*
X176285714Y-23500000D01*
X176380952Y-23452380D01*
X176619047Y-23452380D01*
X176714285Y-23500000D01*
X176761904Y-23547619D01*
X176809523Y-23642857D01*
X176809523Y-23738095D01*
X176761904Y-23880952D01*
X176190476Y-24452380D01*
X176809523Y-24452380D01*
%TO.C,C7*%
X197107142Y-29416666D02*
X197154761Y-29464285D01*
X197202380Y-29607142D01*
X197202380Y-29702380D01*
X197154761Y-29845238D01*
X197059523Y-29940476D01*
X196964285Y-29988095D01*
X196773809Y-30035714D01*
X196630952Y-30035714D01*
X196440476Y-29988095D01*
X196345238Y-29940476D01*
X196250000Y-29845238D01*
X196202380Y-29702380D01*
X196202380Y-29607142D01*
X196250000Y-29464285D01*
X196297619Y-29416666D01*
X196202380Y-29083333D02*
X196202380Y-28416666D01*
X197202380Y-28845238D01*
%TO.C,U5*%
X133452380Y-38761904D02*
X134261904Y-38761904D01*
X134357142Y-38714285D01*
X134404761Y-38666666D01*
X134452380Y-38571428D01*
X134452380Y-38380952D01*
X134404761Y-38285714D01*
X134357142Y-38238095D01*
X134261904Y-38190476D01*
X133452380Y-38190476D01*
X133452380Y-37238095D02*
X133452380Y-37714285D01*
X133928571Y-37761904D01*
X133880952Y-37714285D01*
X133833333Y-37619047D01*
X133833333Y-37380952D01*
X133880952Y-37285714D01*
X133928571Y-37238095D01*
X134023809Y-37190476D01*
X134261904Y-37190476D01*
X134357142Y-37238095D01*
X134404761Y-37285714D01*
X134452380Y-37380952D01*
X134452380Y-37619047D01*
X134404761Y-37714285D01*
X134357142Y-37761904D01*
%TO.C,SW2*%
X129404761Y-39333333D02*
X129452380Y-39190476D01*
X129452380Y-38952380D01*
X129404761Y-38857142D01*
X129357142Y-38809523D01*
X129261904Y-38761904D01*
X129166666Y-38761904D01*
X129071428Y-38809523D01*
X129023809Y-38857142D01*
X128976190Y-38952380D01*
X128928571Y-39142857D01*
X128880952Y-39238095D01*
X128833333Y-39285714D01*
X128738095Y-39333333D01*
X128642857Y-39333333D01*
X128547619Y-39285714D01*
X128500000Y-39238095D01*
X128452380Y-39142857D01*
X128452380Y-38904761D01*
X128500000Y-38761904D01*
X128452380Y-38428571D02*
X129452380Y-38190476D01*
X128738095Y-38000000D01*
X129452380Y-37809523D01*
X128452380Y-37571428D01*
X128547619Y-37238095D02*
X128500000Y-37190476D01*
X128452380Y-37095238D01*
X128452380Y-36857142D01*
X128500000Y-36761904D01*
X128547619Y-36714285D01*
X128642857Y-36666666D01*
X128738095Y-36666666D01*
X128880952Y-36714285D01*
X129452380Y-37285714D01*
X129452380Y-36666666D01*
%TO.C,U3*%
X159452380Y-38761904D02*
X160261904Y-38761904D01*
X160357142Y-38714285D01*
X160404761Y-38666666D01*
X160452380Y-38571428D01*
X160452380Y-38380952D01*
X160404761Y-38285714D01*
X160357142Y-38238095D01*
X160261904Y-38190476D01*
X159452380Y-38190476D01*
X159452380Y-37809523D02*
X159452380Y-37190476D01*
X159833333Y-37523809D01*
X159833333Y-37380952D01*
X159880952Y-37285714D01*
X159928571Y-37238095D01*
X160023809Y-37190476D01*
X160261904Y-37190476D01*
X160357142Y-37238095D01*
X160404761Y-37285714D01*
X160452380Y-37380952D01*
X160452380Y-37666666D01*
X160404761Y-37761904D01*
X160357142Y-37809523D01*
%TO.C,C6*%
X200107142Y-29416666D02*
X200154761Y-29464285D01*
X200202380Y-29607142D01*
X200202380Y-29702380D01*
X200154761Y-29845238D01*
X200059523Y-29940476D01*
X199964285Y-29988095D01*
X199773809Y-30035714D01*
X199630952Y-30035714D01*
X199440476Y-29988095D01*
X199345238Y-29940476D01*
X199250000Y-29845238D01*
X199202380Y-29702380D01*
X199202380Y-29607142D01*
X199250000Y-29464285D01*
X199297619Y-29416666D01*
X199202380Y-28559523D02*
X199202380Y-28750000D01*
X199250000Y-28845238D01*
X199297619Y-28892857D01*
X199440476Y-28988095D01*
X199630952Y-29035714D01*
X200011904Y-29035714D01*
X200107142Y-28988095D01*
X200154761Y-28940476D01*
X200202380Y-28845238D01*
X200202380Y-28654761D01*
X200154761Y-28559523D01*
X200107142Y-28511904D01*
X200011904Y-28464285D01*
X199773809Y-28464285D01*
X199678571Y-28511904D01*
X199630952Y-28559523D01*
X199583333Y-28654761D01*
X199583333Y-28845238D01*
X199630952Y-28940476D01*
X199678571Y-28988095D01*
X199773809Y-29035714D01*
%TO.C,R1*%
X189583333Y-48202380D02*
X189250000Y-47726190D01*
X189011904Y-48202380D02*
X189011904Y-47202380D01*
X189392857Y-47202380D01*
X189488095Y-47250000D01*
X189535714Y-47297619D01*
X189583333Y-47392857D01*
X189583333Y-47535714D01*
X189535714Y-47630952D01*
X189488095Y-47678571D01*
X189392857Y-47726190D01*
X189011904Y-47726190D01*
X190535714Y-48202380D02*
X189964285Y-48202380D01*
X190250000Y-48202380D02*
X190250000Y-47202380D01*
X190154761Y-47345238D01*
X190059523Y-47440476D01*
X189964285Y-47488095D01*
%TO.C,RN2*%
X173152380Y-45440476D02*
X172676190Y-45773809D01*
X173152380Y-46011904D02*
X172152380Y-46011904D01*
X172152380Y-45630952D01*
X172200000Y-45535714D01*
X172247619Y-45488095D01*
X172342857Y-45440476D01*
X172485714Y-45440476D01*
X172580952Y-45488095D01*
X172628571Y-45535714D01*
X172676190Y-45630952D01*
X172676190Y-46011904D01*
X173152380Y-45011904D02*
X172152380Y-45011904D01*
X173152380Y-44440476D01*
X172152380Y-44440476D01*
X172247619Y-44011904D02*
X172200000Y-43964285D01*
X172152380Y-43869047D01*
X172152380Y-43630952D01*
X172200000Y-43535714D01*
X172247619Y-43488095D01*
X172342857Y-43440476D01*
X172438095Y-43440476D01*
X172580952Y-43488095D01*
X173152380Y-44059523D01*
X173152380Y-43440476D01*
%TO.C,Q1*%
X180904761Y-25547619D02*
X180809523Y-25500000D01*
X180714285Y-25404761D01*
X180571428Y-25261904D01*
X180476190Y-25214285D01*
X180380952Y-25214285D01*
X180428571Y-25452380D02*
X180333333Y-25404761D01*
X180238095Y-25309523D01*
X180190476Y-25119047D01*
X180190476Y-24785714D01*
X180238095Y-24595238D01*
X180333333Y-24500000D01*
X180428571Y-24452380D01*
X180619047Y-24452380D01*
X180714285Y-24500000D01*
X180809523Y-24595238D01*
X180857142Y-24785714D01*
X180857142Y-25119047D01*
X180809523Y-25309523D01*
X180714285Y-25404761D01*
X180619047Y-25452380D01*
X180428571Y-25452380D01*
X181809523Y-25452380D02*
X181238095Y-25452380D01*
X181523809Y-25452380D02*
X181523809Y-24452380D01*
X181428571Y-24595238D01*
X181333333Y-24690476D01*
X181238095Y-24738095D01*
%TO.C,R10*%
X184702380Y-34642857D02*
X184226190Y-34976190D01*
X184702380Y-35214285D02*
X183702380Y-35214285D01*
X183702380Y-34833333D01*
X183750000Y-34738095D01*
X183797619Y-34690476D01*
X183892857Y-34642857D01*
X184035714Y-34642857D01*
X184130952Y-34690476D01*
X184178571Y-34738095D01*
X184226190Y-34833333D01*
X184226190Y-35214285D01*
X184702380Y-33690476D02*
X184702380Y-34261904D01*
X184702380Y-33976190D02*
X183702380Y-33976190D01*
X183845238Y-34071428D01*
X183940476Y-34166666D01*
X183988095Y-34261904D01*
X183702380Y-33071428D02*
X183702380Y-32976190D01*
X183750000Y-32880952D01*
X183797619Y-32833333D01*
X183892857Y-32785714D01*
X184083333Y-32738095D01*
X184321428Y-32738095D01*
X184511904Y-32785714D01*
X184607142Y-32833333D01*
X184654761Y-32880952D01*
X184702380Y-32976190D01*
X184702380Y-33071428D01*
X184654761Y-33166666D01*
X184607142Y-33214285D01*
X184511904Y-33261904D01*
X184321428Y-33309523D01*
X184083333Y-33309523D01*
X183892857Y-33261904D01*
X183797619Y-33214285D01*
X183750000Y-33166666D01*
X183702380Y-33071428D01*
%TO.C,R8*%
X184702380Y-38166666D02*
X184226190Y-38500000D01*
X184702380Y-38738095D02*
X183702380Y-38738095D01*
X183702380Y-38357142D01*
X183750000Y-38261904D01*
X183797619Y-38214285D01*
X183892857Y-38166666D01*
X184035714Y-38166666D01*
X184130952Y-38214285D01*
X184178571Y-38261904D01*
X184226190Y-38357142D01*
X184226190Y-38738095D01*
X184130952Y-37595238D02*
X184083333Y-37690476D01*
X184035714Y-37738095D01*
X183940476Y-37785714D01*
X183892857Y-37785714D01*
X183797619Y-37738095D01*
X183750000Y-37690476D01*
X183702380Y-37595238D01*
X183702380Y-37404761D01*
X183750000Y-37309523D01*
X183797619Y-37261904D01*
X183892857Y-37214285D01*
X183940476Y-37214285D01*
X184035714Y-37261904D01*
X184083333Y-37309523D01*
X184130952Y-37404761D01*
X184130952Y-37595238D01*
X184178571Y-37690476D01*
X184226190Y-37738095D01*
X184321428Y-37785714D01*
X184511904Y-37785714D01*
X184607142Y-37738095D01*
X184654761Y-37690476D01*
X184702380Y-37595238D01*
X184702380Y-37404761D01*
X184654761Y-37309523D01*
X184607142Y-37261904D01*
X184511904Y-37214285D01*
X184321428Y-37214285D01*
X184226190Y-37261904D01*
X184178571Y-37309523D01*
X184130952Y-37404761D01*
%TO.C,SW1*%
X175404761Y-39333333D02*
X175452380Y-39190476D01*
X175452380Y-38952380D01*
X175404761Y-38857142D01*
X175357142Y-38809523D01*
X175261904Y-38761904D01*
X175166666Y-38761904D01*
X175071428Y-38809523D01*
X175023809Y-38857142D01*
X174976190Y-38952380D01*
X174928571Y-39142857D01*
X174880952Y-39238095D01*
X174833333Y-39285714D01*
X174738095Y-39333333D01*
X174642857Y-39333333D01*
X174547619Y-39285714D01*
X174500000Y-39238095D01*
X174452380Y-39142857D01*
X174452380Y-38904761D01*
X174500000Y-38761904D01*
X174452380Y-38428571D02*
X175452380Y-38190476D01*
X174738095Y-38000000D01*
X175452380Y-37809523D01*
X174452380Y-37571428D01*
X175452380Y-36666666D02*
X175452380Y-37238095D01*
X175452380Y-36952380D02*
X174452380Y-36952380D01*
X174595238Y-37047619D01*
X174690476Y-37142857D01*
X174738095Y-37238095D01*
%TO.C,Q4*%
X178904761Y-23547619D02*
X178809523Y-23500000D01*
X178714285Y-23404761D01*
X178571428Y-23261904D01*
X178476190Y-23214285D01*
X178380952Y-23214285D01*
X178428571Y-23452380D02*
X178333333Y-23404761D01*
X178238095Y-23309523D01*
X178190476Y-23119047D01*
X178190476Y-22785714D01*
X178238095Y-22595238D01*
X178333333Y-22500000D01*
X178428571Y-22452380D01*
X178619047Y-22452380D01*
X178714285Y-22500000D01*
X178809523Y-22595238D01*
X178857142Y-22785714D01*
X178857142Y-23119047D01*
X178809523Y-23309523D01*
X178714285Y-23404761D01*
X178619047Y-23452380D01*
X178428571Y-23452380D01*
X179714285Y-22785714D02*
X179714285Y-23452380D01*
X179476190Y-22404761D02*
X179238095Y-23119047D01*
X179857142Y-23119047D01*
D11*
%TO.C,TH2*%
X130760000Y-45686529D02*
X130760000Y-45140000D01*
X130760000Y-47360000D02*
X130760000Y-46813471D01*
X129240000Y-47360000D02*
X129240000Y-46250000D01*
X130760000Y-47360000D02*
X131965000Y-47360000D01*
X131965000Y-47360000D02*
X131965000Y-46557530D01*
X130000000Y-47360000D02*
X129240000Y-47360000D01*
X130760000Y-45140000D02*
X131965000Y-45140000D01*
X131965000Y-45942470D02*
X131965000Y-45140000D01*
%TO.C,TH1*%
X193510000Y-45686529D02*
X193510000Y-45140000D01*
X193510000Y-47360000D02*
X193510000Y-46813471D01*
X191990000Y-47360000D02*
X191990000Y-46250000D01*
X193510000Y-47360000D02*
X194715000Y-47360000D01*
X194715000Y-47360000D02*
X194715000Y-46557530D01*
X192750000Y-47360000D02*
X191990000Y-47360000D01*
X193510000Y-45140000D02*
X194715000Y-45140000D01*
X194715000Y-45942470D02*
X194715000Y-45140000D01*
%TO.C,C1*%
X206760000Y-31603733D02*
X206760000Y-31896267D01*
X205740000Y-31603733D02*
X205740000Y-31896267D01*
%TO.C,SW3*%
X185940000Y-27900000D02*
X192060000Y-27900000D01*
X185940000Y-31600000D02*
X185940000Y-27900000D01*
X192060000Y-27900000D02*
X192060000Y-31600000D01*
X192060000Y-31600000D02*
X185940000Y-31600000D01*
%TO.C,J4*%
X216600000Y-27300000D02*
X216600000Y-42000000D01*
X207400000Y-35800000D02*
X207400000Y-27300000D01*
X207400000Y-42000000D02*
X207400000Y-40200000D01*
X216600000Y-42000000D02*
X214500000Y-42000000D01*
X215200000Y-42300000D02*
X216900000Y-42300000D01*
X216900000Y-42300000D02*
X216900000Y-40700000D01*
X207400000Y-27300000D02*
X216600000Y-27300000D01*
X209500000Y-42000000D02*
X207400000Y-42000000D01*
%TO.C,R9*%
X197022500Y-45495276D02*
X197022500Y-46004724D01*
X195977500Y-45495276D02*
X195977500Y-46004724D01*
%TO.C,Q3*%
X217650000Y-39450000D02*
X217650000Y-41750000D01*
X220850000Y-41050000D02*
X220850000Y-39450000D01*
%TO.C,U4*%
X158300000Y-28365000D02*
X145700000Y-28365000D01*
X145590000Y-43715000D02*
X145590000Y-32285000D01*
X155000000Y-38000000D02*
X148000000Y-38000000D01*
X158410000Y-43715000D02*
X158410000Y-32285000D01*
X148000000Y-38000000D02*
X147000000Y-43000000D01*
X147000000Y-43000000D02*
X154000000Y-43000000D01*
X146700000Y-47635000D02*
X158300000Y-47635000D01*
X149000000Y-33000000D02*
X148000000Y-38000000D01*
X149000000Y-33000000D02*
X156000000Y-33000000D01*
X154000000Y-43000000D02*
X155000000Y-38000000D01*
X156000000Y-33000000D02*
X155000000Y-38000000D01*
X156447214Y-43000000D02*
G75*
G03*
X156447214Y-43000000I-447214J0D01*
G01*
%TO.C,U1*%
X202190000Y-31750000D02*
X202190000Y-31100000D01*
X205310000Y-31750000D02*
X205310000Y-30075000D01*
X202190000Y-31750000D02*
X202190000Y-32400000D01*
X205310000Y-31750000D02*
X205310000Y-32400000D01*
%TO.C,R6*%
X197727500Y-32004724D02*
X197727500Y-31495276D01*
X198772500Y-32004724D02*
X198772500Y-31495276D01*
%TO.C,R5*%
X207227500Y-46004724D02*
X207227500Y-45495276D01*
X208272500Y-46004724D02*
X208272500Y-45495276D01*
%TO.C,R3*%
X130754724Y-44422500D02*
X130245276Y-44422500D01*
X130754724Y-43377500D02*
X130245276Y-43377500D01*
%TO.C,J5*%
X213090000Y-48850000D02*
X213090000Y-54850000D01*
X210330000Y-54850000D02*
X210330000Y-48850000D01*
X214520000Y-43480000D02*
X214520000Y-44750000D01*
X213330000Y-48850000D02*
X213330000Y-54850000D01*
X213630000Y-48850000D02*
X213630000Y-54850000D01*
X212870000Y-54850000D02*
X212870000Y-48850000D01*
X214580000Y-48850000D02*
X214580000Y-46190000D01*
X214580000Y-46190000D02*
X209380000Y-46190000D01*
X213450000Y-48850000D02*
X213450000Y-54850000D01*
X213630000Y-54850000D02*
X212870000Y-54850000D01*
X212970000Y-48850000D02*
X212970000Y-54850000D01*
X213570000Y-48850000D02*
X213570000Y-54850000D01*
X213250000Y-43480000D02*
X214520000Y-43480000D01*
X211980000Y-46190000D02*
X211980000Y-48850000D01*
X213210000Y-48850000D02*
X213210000Y-54850000D01*
X209380000Y-46190000D02*
X209380000Y-48850000D01*
X212870000Y-45860000D02*
X212870000Y-46190000D01*
X209380000Y-48850000D02*
X214580000Y-48850000D01*
X211090000Y-48850000D02*
X211090000Y-54850000D01*
X210330000Y-45792929D02*
X210330000Y-46190000D01*
X213630000Y-45860000D02*
X213630000Y-46190000D01*
X211090000Y-54850000D02*
X210330000Y-54850000D01*
X211090000Y-45792929D02*
X211090000Y-46190000D01*
%TO.C,J2*%
X203080000Y-39220000D02*
X203080000Y-46900000D01*
X200420000Y-37950000D02*
X200420000Y-36620000D01*
X200420000Y-46900000D02*
X203080000Y-46900000D01*
X200420000Y-39220000D02*
X203080000Y-39220000D01*
X200420000Y-36620000D02*
X201750000Y-36620000D01*
X200420000Y-39220000D02*
X200420000Y-46900000D01*
%TO.C,J1*%
X206330000Y-45525000D02*
X206330000Y-46855000D01*
X206330000Y-41655000D02*
X203670000Y-41655000D01*
X206330000Y-44255000D02*
X206330000Y-41655000D01*
X206330000Y-44255000D02*
X203670000Y-44255000D01*
X206330000Y-46855000D02*
X205000000Y-46855000D01*
X203670000Y-44255000D02*
X203670000Y-41655000D01*
%TO.C,C2*%
X200740000Y-31896267D02*
X200740000Y-31603733D01*
X201760000Y-31896267D02*
X201760000Y-31603733D01*
%TO.C,U2*%
X198128193Y-37787868D02*
X199058038Y-36858023D01*
X198128193Y-38212132D02*
X198340325Y-38000000D01*
X188341835Y-37787868D02*
X188129703Y-38000000D01*
X188129703Y-38000000D02*
X188341835Y-38212132D01*
X193235014Y-43105311D02*
X193022882Y-42893179D01*
X198340325Y-38000000D02*
X198128193Y-37787868D01*
X193447146Y-42893179D02*
X193235014Y-43105311D01*
X193235014Y-32894689D02*
X193447146Y-33106821D01*
X193022882Y-33106821D02*
X193235014Y-32894689D01*
%TO.C,RN1*%
X174750000Y-32930000D02*
X175750000Y-32930000D01*
X174750000Y-29570000D02*
X175750000Y-29570000D01*
%TO.C,C5*%
X186260000Y-39603733D02*
X186260000Y-39896267D01*
X185240000Y-39603733D02*
X185240000Y-39896267D01*
%TO.C,R7*%
X182227500Y-42254724D02*
X182227500Y-41745276D01*
X183272500Y-42254724D02*
X183272500Y-41745276D01*
%TO.C,Q2*%
X178440000Y-38000000D02*
X178440000Y-38650000D01*
X181560000Y-38000000D02*
X181560000Y-38650000D01*
X181560000Y-38000000D02*
X181560000Y-36325000D01*
X178440000Y-38000000D02*
X178440000Y-37350000D01*
%TO.C,C7*%
X196240000Y-31896267D02*
X196240000Y-31603733D01*
X197260000Y-31896267D02*
X197260000Y-31603733D01*
%TO.C,U5*%
X136000000Y-33000000D02*
X143000000Y-33000000D01*
X134000000Y-43000000D02*
X141000000Y-43000000D01*
X145300000Y-28365000D02*
X132700000Y-28365000D01*
X136000000Y-33000000D02*
X135000000Y-38000000D01*
X135000000Y-38000000D02*
X134000000Y-43000000D01*
X141000000Y-43000000D02*
X142000000Y-38000000D01*
X142000000Y-38000000D02*
X135000000Y-38000000D01*
X133700000Y-47635000D02*
X145300000Y-47635000D01*
X132590000Y-43715000D02*
X132590000Y-32285000D01*
X143000000Y-33000000D02*
X142000000Y-38000000D01*
X145410000Y-43715000D02*
X145410000Y-32285000D01*
X143447214Y-43000000D02*
G75*
G03*
X143447214Y-43000000I-447214J0D01*
G01*
%TO.C,SW2*%
X130000000Y-40750000D02*
X128000000Y-40750000D01*
X126700000Y-39700000D02*
X126250000Y-39250000D01*
X126700000Y-36300000D02*
X126250000Y-36750000D01*
X131300000Y-36300000D02*
X131750000Y-36750000D01*
X130000000Y-35250000D02*
X128000000Y-35250000D01*
X126250000Y-36750000D02*
X126250000Y-39250000D01*
X131750000Y-36750000D02*
X131750000Y-39250000D01*
X131300000Y-39700000D02*
X131750000Y-39250000D01*
%TO.C,U3*%
X171410000Y-43715000D02*
X171410000Y-32285000D01*
X161000000Y-38000000D02*
X160000000Y-43000000D01*
X160000000Y-43000000D02*
X167000000Y-43000000D01*
X162000000Y-33000000D02*
X161000000Y-38000000D01*
X167000000Y-43000000D02*
X168000000Y-38000000D01*
X171300000Y-28365000D02*
X158700000Y-28365000D01*
X168000000Y-38000000D02*
X161000000Y-38000000D01*
X159700000Y-47635000D02*
X171300000Y-47635000D01*
X158590000Y-43715000D02*
X158590000Y-32285000D01*
X162000000Y-33000000D02*
X169000000Y-33000000D01*
X169000000Y-33000000D02*
X168000000Y-38000000D01*
X169447214Y-43000000D02*
G75*
G03*
X169447214Y-43000000I-447214J0D01*
G01*
%TO.C,C6*%
X200260000Y-31896267D02*
X200260000Y-31603733D01*
X199240000Y-31896267D02*
X199240000Y-31603733D01*
%TO.C,R1*%
X190004724Y-45727500D02*
X189495276Y-45727500D01*
X190004724Y-46772500D02*
X189495276Y-46772500D01*
%TO.C,RN2*%
X174500000Y-43070000D02*
X175500000Y-43070000D01*
X174500000Y-46430000D02*
X175500000Y-46430000D01*
%TO.C,Q1*%
X178440000Y-42000000D02*
X178440000Y-41350000D01*
X178440000Y-42000000D02*
X178440000Y-42650000D01*
X181560000Y-42000000D02*
X181560000Y-40325000D01*
X181560000Y-42000000D02*
X181560000Y-42650000D01*
%TO.C,R10*%
X182227500Y-34254724D02*
X182227500Y-33745276D01*
X183272500Y-34254724D02*
X183272500Y-33745276D01*
%TO.C,R8*%
X182227500Y-38254724D02*
X182227500Y-37745276D01*
X183272500Y-38254724D02*
X183272500Y-37745276D01*
%TO.C,SW1*%
X177300000Y-36300000D02*
X177750000Y-36750000D01*
X176000000Y-40750000D02*
X174000000Y-40750000D01*
X172250000Y-36750000D02*
X172250000Y-39250000D01*
X172700000Y-39700000D02*
X172250000Y-39250000D01*
X177750000Y-36750000D02*
X177750000Y-39250000D01*
X176000000Y-35250000D02*
X174000000Y-35250000D01*
X177300000Y-39700000D02*
X177750000Y-39250000D01*
X172700000Y-36300000D02*
X172250000Y-36750000D01*
%TO.C,Q4*%
X181560000Y-34000000D02*
X181560000Y-32325000D01*
X178440000Y-34000000D02*
X178440000Y-33350000D01*
X181560000Y-34000000D02*
X181560000Y-34650000D01*
X178440000Y-34000000D02*
X178440000Y-34650000D01*
%TD*%
M02*
