%TF.GenerationSoftware,KiCad,Pcbnew,(6.0.5)*%
%TF.CreationDate,2023-01-29T17:57:26+00:00*%
%TF.ProjectId,PCB reflow Plate,50434220-7265-4666-9c6f-7720506c6174,rev?*%
%TF.SameCoordinates,Original*%
%TF.FileFunction,Soldermask,Top*%
%TF.FilePolarity,Negative*%
%FSLAX46Y46*%
G04 Gerber Fmt 4.6, Leading zero omitted, Abs format (unit mm)*
G04 Created by KiCad (PCBNEW (6.0.5)) date 2023-01-29 17:57:26*
%MOMM*%
%LPD*%
G01*
G04 APERTURE LIST*
G04 Aperture macros list*
%AMRoundRect*
0 Rectangle with rounded corners*
0 $1 Rounding radius*
0 $2 $3 $4 $5 $6 $7 $8 $9 X,Y pos of 4 corners*
0 Add a 4 corners polygon primitive as box body*
4,1,4,$2,$3,$4,$5,$6,$7,$8,$9,$2,$3,0*
0 Add four circle primitives for the rounded corners*
1,1,$1+$1,$2,$3*
1,1,$1+$1,$4,$5*
1,1,$1+$1,$6,$7*
1,1,$1+$1,$8,$9*
0 Add four rect primitives between the rounded corners*
20,1,$1+$1,$2,$3,$4,$5,0*
20,1,$1+$1,$4,$5,$6,$7,0*
20,1,$1+$1,$6,$7,$8,$9,0*
20,1,$1+$1,$8,$9,$2,$3,0*%
G04 Aperture macros list end*
%ADD10R,1.000000X1.000000*%
%ADD11O,1.000000X1.000000*%
%ADD12RoundRect,0.237500X-0.237500X0.300000X-0.237500X-0.300000X0.237500X-0.300000X0.237500X0.300000X0*%
%ADD13R,1.500000X1.500000*%
%ADD14R,4.400000X1.800000*%
%ADD15O,4.000000X1.800000*%
%ADD16O,1.800000X4.000000*%
%ADD17RoundRect,0.237500X-0.237500X0.250000X-0.237500X-0.250000X0.237500X-0.250000X0.237500X0.250000X0*%
%ADD18R,0.510000X0.700000*%
%ADD19R,1.524000X2.524000*%
%ADD20O,1.524000X2.524000*%
%ADD21RoundRect,0.150000X-0.150000X0.587500X-0.150000X-0.587500X0.150000X-0.587500X0.150000X0.587500X0*%
%ADD22RoundRect,0.237500X0.237500X-0.250000X0.237500X0.250000X-0.237500X0.250000X-0.237500X-0.250000X0*%
%ADD23RoundRect,0.237500X0.250000X0.237500X-0.250000X0.237500X-0.250000X-0.237500X0.250000X-0.237500X0*%
%ADD24R,1.700000X1.700000*%
%ADD25O,1.700000X1.700000*%
%ADD26RoundRect,0.237500X0.237500X-0.300000X0.237500X0.300000X-0.237500X0.300000X-0.237500X-0.300000X0*%
%ADD27RoundRect,0.125000X0.353553X0.530330X-0.530330X-0.353553X-0.353553X-0.530330X0.530330X0.353553X0*%
%ADD28RoundRect,0.125000X-0.353553X0.530330X-0.530330X0.353553X0.353553X-0.530330X0.530330X-0.353553X0*%
%ADD29R,0.800000X0.500000*%
%ADD30R,0.800000X0.400000*%
%ADD31R,1.000000X1.700000*%
G04 APERTURE END LIST*
D10*
%TO.C,TH2*%
X130000000Y-46250000D03*
D11*
X131270000Y-46250000D03*
%TD*%
D10*
%TO.C,TH1*%
X192750000Y-46250000D03*
D11*
X194020000Y-46250000D03*
%TD*%
D12*
%TO.C,C1*%
X206250000Y-30887500D03*
X206250000Y-32612500D03*
%TD*%
D13*
%TO.C,SW3*%
X185100000Y-29750000D03*
X192900000Y-29750000D03*
%TD*%
D14*
%TO.C,J4*%
X212000000Y-41000000D03*
D15*
X212000000Y-35200000D03*
D16*
X207200000Y-38000000D03*
%TD*%
D17*
%TO.C,R9*%
X196500000Y-44837500D03*
X196500000Y-46662500D03*
%TD*%
D18*
%TO.C,Q3*%
X218300000Y-41410000D03*
X219250000Y-41410000D03*
X220200000Y-41410000D03*
X220200000Y-39090000D03*
X219250000Y-39090000D03*
X218300000Y-39090000D03*
%TD*%
D19*
%TO.C,U4*%
X146920000Y-45620000D03*
D20*
X149460000Y-45620000D03*
X152000000Y-45620000D03*
X154540000Y-45620000D03*
X157080000Y-45620000D03*
X157080000Y-30380000D03*
X154540000Y-30380000D03*
X152000000Y-30380000D03*
X149460000Y-30380000D03*
X146920000Y-30380000D03*
%TD*%
D21*
%TO.C,U1*%
X203750000Y-32687500D03*
X202800000Y-30812500D03*
X204700000Y-30812500D03*
%TD*%
D22*
%TO.C,R6*%
X198250000Y-32662500D03*
X198250000Y-30837500D03*
%TD*%
%TO.C,R5*%
X207750000Y-46662500D03*
X207750000Y-44837500D03*
%TD*%
D23*
%TO.C,R3*%
X131412500Y-43900000D03*
X129587500Y-43900000D03*
%TD*%
D24*
%TO.C,J5*%
X213250000Y-44750000D03*
D25*
X210710000Y-44750000D03*
%TD*%
D24*
%TO.C,J2*%
X201750000Y-37950000D03*
D25*
X201750000Y-40490000D03*
X201750000Y-43030000D03*
X201750000Y-45570000D03*
%TD*%
D24*
%TO.C,J1*%
X205000000Y-45525000D03*
D25*
X205000000Y-42985000D03*
%TD*%
D26*
%TO.C,C2*%
X201250000Y-32612500D03*
X201250000Y-30887500D03*
%TD*%
D27*
%TO.C,U2*%
X198167084Y-37027728D03*
X197601398Y-36462043D03*
X197035713Y-35896357D03*
X196470028Y-35330672D03*
X195904342Y-34764986D03*
X195338657Y-34199301D03*
X194772971Y-33633616D03*
X194207286Y-33067930D03*
D28*
X192262742Y-33067930D03*
X191697057Y-33633616D03*
X191131371Y-34199301D03*
X190565686Y-34764986D03*
X190000000Y-35330672D03*
X189434315Y-35896357D03*
X188868630Y-36462043D03*
X188302944Y-37027728D03*
D27*
X188302944Y-38972272D03*
X188868630Y-39537957D03*
X189434315Y-40103643D03*
X190000000Y-40669328D03*
X190565686Y-41235014D03*
X191131371Y-41800699D03*
X191697057Y-42366384D03*
X192262742Y-42932070D03*
D28*
X194207286Y-42932070D03*
X194772971Y-42366384D03*
X195338657Y-41800699D03*
X195904342Y-41235014D03*
X196470028Y-40669328D03*
X197035713Y-40103643D03*
X197601398Y-39537957D03*
X198167084Y-38972272D03*
%TD*%
D29*
%TO.C,RN1*%
X176150000Y-32450000D03*
D30*
X176150000Y-31650000D03*
X176150000Y-30850000D03*
D29*
X176150000Y-30050000D03*
X174350000Y-30050000D03*
D30*
X174350000Y-30850000D03*
X174350000Y-31650000D03*
D29*
X174350000Y-32450000D03*
%TD*%
D12*
%TO.C,C5*%
X185750000Y-40612500D03*
X185750000Y-38887500D03*
%TD*%
D22*
%TO.C,R7*%
X182750000Y-42912500D03*
X182750000Y-41087500D03*
%TD*%
D21*
%TO.C,Q2*%
X180950000Y-37062500D03*
X179050000Y-37062500D03*
X180000000Y-38937500D03*
%TD*%
D26*
%TO.C,C7*%
X196750000Y-32612500D03*
X196750000Y-30887500D03*
%TD*%
D19*
%TO.C,U5*%
X133920000Y-45620000D03*
D20*
X136460000Y-45620000D03*
X139000000Y-45620000D03*
X141540000Y-45620000D03*
X144080000Y-45620000D03*
X144080000Y-30380000D03*
X141540000Y-30380000D03*
X139000000Y-30380000D03*
X136460000Y-30380000D03*
X133920000Y-30380000D03*
%TD*%
D31*
%TO.C,SW2*%
X130900000Y-34850000D03*
X130900000Y-41150000D03*
X127100000Y-41150000D03*
X127100000Y-34850000D03*
%TD*%
D19*
%TO.C,U3*%
X159920000Y-45620000D03*
D20*
X162460000Y-45620000D03*
X165000000Y-45620000D03*
X167540000Y-45620000D03*
X170080000Y-45620000D03*
X170080000Y-30380000D03*
X167540000Y-30380000D03*
X165000000Y-30380000D03*
X162460000Y-30380000D03*
X159920000Y-30380000D03*
%TD*%
D26*
%TO.C,C6*%
X199750000Y-32612500D03*
X199750000Y-30887500D03*
%TD*%
D23*
%TO.C,R1*%
X190662500Y-46250000D03*
X188837500Y-46250000D03*
%TD*%
D29*
%TO.C,RN2*%
X175900000Y-45950000D03*
D30*
X175900000Y-45150000D03*
X175900000Y-44350000D03*
D29*
X175900000Y-43550000D03*
X174100000Y-43550000D03*
D30*
X174100000Y-44350000D03*
X174100000Y-45150000D03*
D29*
X174100000Y-45950000D03*
%TD*%
D21*
%TO.C,Q1*%
X180950000Y-41062500D03*
X179050000Y-41062500D03*
X180000000Y-42937500D03*
%TD*%
D22*
%TO.C,R10*%
X182750000Y-34912500D03*
X182750000Y-33087500D03*
%TD*%
%TO.C,R8*%
X182750000Y-38912500D03*
X182750000Y-37087500D03*
%TD*%
D31*
%TO.C,SW1*%
X176900000Y-41150000D03*
X176900000Y-34850000D03*
X173100000Y-34850000D03*
X173100000Y-41150000D03*
%TD*%
D21*
%TO.C,Q4*%
X180950000Y-33062500D03*
X179050000Y-33062500D03*
X180000000Y-34937500D03*
%TD*%
M02*
